<svg width="1024" height="1024" viewBox="0 0 1024 1024" fill="none" xmlns="http://www.w3.org/2000/svg">
<rect width="1024" height="1024" fill="#285A66"/>
<path d="M518.937 147.327C604.554 132.98 683.461 186.202 705.444 272.977C710.998 295.191 711.692 331.521 706.602 354.893C702.899 372.71 691.098 406.495 686.007 414.362C679.065 425.007 673.049 447.684 673.049 463.65C673.049 490.955 676.751 497.898 711.461 533.996C735.989 559.45 744.088 569.632 750.567 582.821C774.633 631.647 768.386 684.406 733.444 730.686C705.676 767.247 657.314 793.857 644.818 779.279C634.868 767.941 639.265 759.379 669.115 730.454C684.156 715.876 693.412 704.769 697.577 696.438C703.131 685.1 703.594 682.092 702.668 661.497C701.974 641.828 700.817 637.2 695.032 626.324C683.462 605.267 647.132 578.193 633.479 580.275C624.224 581.664 623.298 586.986 627.694 611.283C634.868 649.233 629.545 682.323 611.033 712.868C606.405 720.504 592.059 737.165 579.101 749.892C538.837 789.692 534.903 808.667 560.589 840.138C568.919 850.551 571.232 855.179 571.232 861.658C571.232 871.608 569.613 874.385 562.671 878.088C547.167 886.186 516.622 863.972 503.664 835.278C499.499 826.022 498.573 819.775 498.573 801.957C498.805 770.255 507.366 751.048 538.143 714.487C552.952 696.901 558.506 686.488 563.365 667.282C574.472 624.01 548.324 585.135 522.87 606.655C518.936 609.895 510.838 621.928 505.053 633.498C489.78 662.654 479.598 671.91 434.476 696.67C390.741 720.735 382.642 726.984 375.469 742.95C368.758 757.065 368.527 765.396 374.543 778.354C379.402 789.23 388.427 795.709 409.021 803.114C425.219 808.899 430.773 816.998 425.451 826.717C419.898 836.667 412.493 839.213 394.212 838.287C372.923 837.13 358.808 830.65 343.304 814.915C324.329 795.246 316.462 769.098 321.321 741.33C327.569 707.777 344.924 686.489 388.658 659.184C403.468 649.928 419.435 638.126 424.294 632.804C439.566 615.912 449.054 588.606 440.724 585.366C438.872 584.672 429.385 588.144 419.435 593.234C392.361 606.887 381.022 610.126 359.733 610.126C318.544 610.357 283.834 588.143 266.479 550.656C261.157 538.855 260.231 533.996 260 515.021C260 499.749 261.388 489.105 264.165 480.311C276.661 442.362 317.156 412.279 335.899 427.089C346.312 435.188 344.692 445.138 330.346 460.873C315.999 476.84 312.065 485.633 312.065 502.294C312.065 516.641 315.305 524.74 325.255 533.996C333.817 542.326 342.147 545.103 357.419 545.103C401.153 545.103 437.715 490.03 424.294 444.444C422.211 437.04 414.344 418.527 406.708 403.486C387.039 364.148 381.022 342.397 381.022 309.075C380.791 286.629 381.717 279.687 386.808 263.952C395.601 237.11 407.865 217.904 430.079 195.689C457.384 168.384 486.078 152.881 518.937 147.327ZM491.689 386.233C474.916 386.233 461.319 399.831 461.318 416.604C461.318 433.378 474.916 446.977 491.689 446.977C508.463 446.976 522.061 433.378 522.061 416.604C522.06 399.831 508.463 386.234 491.689 386.233Z" fill="#FF7F5A"/>
</svg>
